<?xml version="1.0" standalone="no"?>
<!DOCTYPE svg PUBLIC "-//W3C//DTD SVG 20010904//EN"
 "http://www.w3.org/TR/2001/REC-SVG-20010904/DTD/svg10.dtd">
<svg version="1.0" xmlns="http://www.w3.org/2000/svg"
 width="421.000000pt" height="421.000000pt" viewBox="0 0 421.000000 421.000000"
 preserveAspectRatio="xMidYMid meet">
<metadata>
Created by potrace 1.11, written by Peter Selinger 2001-2013
</metadata>
<g transform="translate(0.000000,421.000000) scale(0.100000,-0.100000)"
fill="#000000" stroke="none">
<path d="M1924 3635 c-15 -14 -34 -25 -43 -26 -52 -2 -88 -12 -106 -29 -12
-11 -30 -20 -41 -20 -44 0 -107 -63 -129 -130 -8 -25 -29 -60 -45 -79 -17 -18
-30 -41 -31 -50 -1 -35 -8 -53 -33 -85 -17 -23 -25 -46 -25 -72 1 -42 -2 -54
-19 -97 -7 -16 -9 -49 -6 -77 4 -35 0 -67 -14 -112 -32 -101 -51 -171 -56
-208 -3 -19 -8 -48 -12 -65 -3 -16 -7 -41 -8 -53 -4 -33 -19 -40 -77 -36 l-49
3 -10 -42 c-6 -23 -13 -47 -15 -53 -2 -6 5 -24 15 -39 15 -23 16 -33 8 -49 -6
-12 -11 -22 -10 -23 1 -2 2 -4 1 -5 -4 -13 -9 -54 -14 -107 -3 -35 -11 -73
-17 -84 -14 -27 -19 -238 -6 -254 6 -7 14 -11 18 -8 19 12 42 -37 45 -97 10
-190 89 -383 242 -587 47 -63 190 -201 208 -201 8 0 15 -5 15 -11 0 -5 5 -7
10 -4 6 3 10 1 10 -6 0 -7 3 -9 7 -6 3 4 11 3 17 -2 40 -32 215 -65 338 -63
153 2 397 98 568 222 79 58 202 175 242 231 10 13 25 33 33 44 29 37 65 96 65
105 0 13 22 13 53 1 17 -7 33 -5 53 5 32 17 73 62 74 82 0 6 5 12 11 12 5 0 8
4 4 9 -3 5 -1 12 5 16 10 6 49 88 55 115 2 8 10 31 19 51 61 144 25 289 -62
250 -30 -14 -42 -14 -37 2 2 6 7 24 10 40 12 63 16 84 25 117 5 19 11 46 14
60 3 14 8 36 11 50 3 14 8 38 11 54 2 16 6 32 8 35 4 6 15 80 22 151 5 45 5
149 0 176 -2 11 -13 38 -25 60 -54 103 -59 117 -53 148 12 64 5 96 -32 150
-20 29 -50 66 -67 82 -17 16 -40 39 -52 52 -11 12 -27 22 -34 22 -7 0 -13 4
-13 10 0 5 -11 12 -25 16 -14 3 -25 10 -25 14 0 5 -10 12 -22 16 -12 3 -50 29
-85 55 -34 27 -67 49 -73 49 -5 0 -10 5 -10 10 0 6 -6 10 -14 10 -8 0 -16 4
-18 8 -4 11 -98 64 -98 56 0 -3 -6 -1 -14 5 -12 10 -32 16 -84 25 -7 1 -18 8
-24 14 -7 7 -18 12 -25 12 -7 0 -13 4 -13 9 0 8 -24 20 -50 26 -3 1 -22 6 -42
12 -21 6 -51 9 -68 7 -19 -4 -36 0 -46 10 -9 9 -20 14 -25 11 -5 -4 -9 -1 -9
4 0 6 -8 11 -18 11 -10 0 -23 5 -29 11 -9 9 -23 9 -57 0 -42 -10 -48 -9 -109
24 l-66 35 -27 -25z"/>
</g>
</svg>
